<svg xmlns="http://www.w3.org/2000/svg">
  <symbol
    id="brand"
    viewBox="0 0 24 24"
  >
    <path
      fill="#2fb2ab"
      d="M17.463 6.538H6.739L.201 0h23.798v23.799l-6.536-6.538z"
    />
    <path
      fill="#bae2e2"
      d="M6.731 17.269V7.848l-6.73 6.731V24H9.42l6.73-6.731z"
    />
  </symbol>
  
  <symbol
    id="apps"
    viewBox="0 0 24 24"
  >
    <path d="M11.0072 11.0072H0V0H11.0072V11.0072Z" />
    <path d="M24 11.0072H12.9928V0H24V11.0072Z" />
    <path d="M11.0072 24H0V12.9928H11.0072V24Z" />
    <path d="M24 24H12.9928V12.9928H24V24Z" />
  </symbol>

  <symbol
    id="grid"
    viewBox="0 0 24 24"
  >
    <path d="M6.49156 0H0V6.49156H6.49156V0Z" />
    <path d="M6.49156 8.75427H0V15.2458H6.49156V8.75427Z" />
    <path d="M6.49156 17.5085H0V24.0001H6.49156V17.5085Z" />
    <path d="M15.2458 0H8.75427V6.49156H15.2458V0Z" />
    <path d="M15.2457 8.75427H8.75415V15.2458H15.2457V8.75427Z" />
    <path d="M15.2457 17.5085H8.75415V24.0001H15.2457V17.5085Z" />
    <path d="M24 0H17.5084V6.49156H24V0Z" />
    <path d="M24 8.75427H17.5084V15.2458H24V8.75427Z" />
    <path d="M24 17.5085H17.5084V24.0001H24V17.5085Z" />
  </symbol>
  
  <symbol
    id="code-branch"
    viewBox="0 0 24 24"
  >
    <path
      d="M24 4C24 1.794 22.206 0 20 0C17.794 0 16 1.794 16 4C16 5.858 17.28 7.411 19 7.858V10C19 10.551 18.551 11 18 11H6C5.649 11 5.313 11.061 5 11.171V7.858C6.72 7.411 8 5.858 8 4C8 1.794 6.206 0 4 0C1.794 0 0 1.794 0 4C0 5.858 1.28 7.411 3 7.858V16.142C1.28 16.589 0 18.142 0 20C0 22.206 1.794 24 4 24C6.206 24 8 22.206 8 20C8 18.142 6.72 16.589 5 16.142V14C5 13.449 5.449 13 6 13H18C19.654 13 21 11.654 21 10V7.858C22.72 7.411 24 5.858 24 4Z"
      fillRule="evenodd"
      clipRule="evenodd"
    />
    <ellipse
      cx="19.9845" 
      cy="3.98438" 
      rx="4.00008" 
      ry="3.98438"
    />
    <ellipse
      cx="4.00008"
       cy="3.98438"
       rx="4.00008"
       ry="3.98438"
    />
    <ellipse
      cx="4.00008" 
      cy="20.0156" 
      rx="4.00008"
      ry="3.98438"
    />
  </symbol>

  <symbol
    id="settings"
    viewBox="0 0 24 24"
  >
    <path d="M21,12a9.143,9.143,0,0,0-.15-1.645L23.893,8.6l-3-5.2L17.849,5.159A9,9,0,0,0,15,3.513V0H9V3.513A9,9,0,0,0,6.151,5.159L3.107,3.4l-3,5.2L3.15,10.355a9.1,9.1,0,0,0,0,3.29L.107,15.4l3,5.2,3.044-1.758A9,9,0,0,0,9,20.487V24h6V20.487a9,9,0,0,0,2.849-1.646L20.893,20.6l3-5.2L20.85,13.645A9.143,9.143,0,0,0,21,12Zm-6,0a3,3,0,1,1-3-3A3,3,0,0,1,15,12Z" />
  </symbol>
</svg>
